STARTFONT 2.1
FONT HAN-GB2312
SIZE 16 72 72
FONTBOUNDINGBOX 10 16 0 0
STARTPROPERTIES 1
BITCOUNT 8
ENDPROPERTIES
CHARS 25
STARTCHAR  00A4
ENCODING  164
SWIDTH  1000 0
DWIDTH  10 0
BBX  10 10 0 1
BITMAP
00806040A0C040606000
00E0FFFFFFFFFFFFE000
0080FFC02020C0FF6000
00E0FF20000020FFE000
00FFF000000000F0FF00
00F0FF10000010FFE000
00A0FF800000A0FF8000
00A0FFFFE0E0FFFFA000
00C0A0A0F0F0A0A0C000
00100000000000000000
ENDCHAR
STARTCHAR  00A7
ENCODING  167
SWIDTH  1000 0
DWIDTH  8 0
BBX  7 14 1 -2
BITMAP
0040E0FFC02000
00F0FFE0FFE000
10FFA000804000
00C0FF40000000
60E0FFF0400000
F0E080FFF04000
E0F01060FFF020
60FFC01060FF60
0080FFE0A0FF60
000080FFFFA000
00000080FF8000
10A01010FFE000
60FFF0E0FFC000
0060E0FFC02000
ENDCHAR
STARTCHAR  00A8
ENCODING  168
SWIDTH  1000 0
DWIDTH  5 0
BBX  5 2 0 9
BITMAP
A08000A080
E0C000E0C0
ENDCHAR
STARTCHAR  00B0
ENCODING  176
SWIDTH  1000 0
DWIDTH  7 0
BBX  5 6 1 6
BITMAP
10C0FFC010
A0FFE0FFA0
F0F000F0F0
F0FF30FFF0
80FFFFFF80
0080C08000
ENDCHAR
STARTCHAR  00B1
ENCODING  177
SWIDTH  1000 0
DWIDTH  10 0
BBX  8 8 1 0
BITMAP
000000E0FF000000
000000E0FF000000
FFFFFFFFFFFFFFFF
C0C0C0FFFFC0C0C0
000000E0FF000000
000000E0FF000000
C0C0C0C0C0C0C0C0
FFFFFFFFFFFFFFFF
ENDCHAR
STARTCHAR  00E0
ENCODING  224
SWIDTH  1000 0
DWIDTH  10 0
BBX  8 12 1 0
BITMAP
0010E0FF40000000
000040FFC0000000
00000080FF300000
0000000080400000
0040C0F0F0E04000
40FFFFE0E0F0FF60
C0FF80000020E0E0
F0F00000000080FF
F0F00000000080FF
A0FF80000040E0FF
20F0FFE0E0FFE0FF
0020A0F0F0C0A0FF
ENDCHAR
STARTCHAR  00E1
ENCODING  225
SWIDTH  1000 0
DWIDTH  10 0
BBX  8 12 1 0
BITMAP
00000000C0FF6000
00000040FFC00000
000000C0F0200000
0000108040000000
0040C0F0F0E04000
40FFFFE0E0F0FF60
C0FF80000020E0E0
F0F00000000080FF
F0F00000000080FF
A0FF80000040E0FF
20F0FFE0E0FFE0FF
0020A0F0F0C0A0FF
ENDCHAR
STARTCHAR  00E8
ENCODING  232
SWIDTH  1000 0
DWIDTH  10 0
BBX  9 12 1 0
BITMAP
0020F0FF3000000000
000060FFA000000000
000000A0FF30000000
000000108040000000
0020A0F0FFE0600000
20F0FFE0C0F0FF8000
A0FF800040E0FFF020
F0F040C0FFF0801000
F0F0E0F0801060E060
C0FFC0100010E0FF30
20F0FFE0C0F0FFA000
0020A0F0FFE0600000
ENDCHAR
STARTCHAR  00E9
ENCODING  233
SWIDTH  1000 0
DWIDTH  10 0
BBX  9 12 1 0
BITMAP
00000000E0FF800000
00000040FFC0000000
000000C0F020000000
000010A06000000000
0020A0F0FFE0600000
20F0FFE0C0F0FF8000
A0FF800040E0FFF020
F0F040C0FFF0801000
F0F0E0F0801060E060
C0FFC0100010E0FF30
20F0FFE0C0F0FFA000
0020A0F0FFE0600000
ENDCHAR
STARTCHAR  00EA
ENCODING  234
SWIDTH  1000 0
DWIDTH  10 0
BBX  9 12 1 0
BITMAP
000010E0FF60000000
000080FFF0E0000000
0010F0C060FF600000
004080300080800000
0020A0F0FFE0600000
20F0FFE0C0F0FF8000
A0FF800040E0FFF020
F0F040C0FFF0801000
F0F0E0F0801060E060
C0FFC0100010E0FF30
20F0FFE0C0F0FFA000
0020A0F0FFE0600000
ENDCHAR
STARTCHAR  00EC
ENCODING  236
SWIDTH  1000 0
DWIDTH  4 0
BBX  5 12 -1 0
BITMAP
60FFE00000
00A0FF6000
0010E0E010
0000206020
0000FFE000
0000FFE000
0000FFE000
0000FFE000
0000FFE000
0000FFE000
0000FFE000
0000FFE000
ENDCHAR
STARTCHAR  00ED
ENCODING  237
SWIDTH  1000 0
DWIDTH  4 0
BBX  5 12 0 0
BITMAP
0020FFF030
00A0FF6000
20FFA00000
3060100000
00FFE00000
00FFE00000
00FFE00000
00FFE00000
00FFE00000
00FFE00000
00FFE00000
00FFE00000
ENDCHAR
STARTCHAR  00F2
ENCODING  242
SWIDTH  1000 0
DWIDTH  10 0
BBX  8 12 1 0
BITMAP
0010F0F010000000
000060FF80000000
000000C0E0000000
0000002080200000
0020A0F0F0C03000
20F0FFE0E0FFF030
C0FF60000060FFC0
F0F000000000F0F0
F0F000000000F0F0
A0FF60000060FFA0
20F0FFE0E0FFF030
0020A0F0FFC03000
ENDCHAR
STARTCHAR  00F3
ENCODING  243
SWIDTH  1000 0
DWIDTH  10 0
BBX  8 12 1 0
BITMAP
00000000F0F02000
00000060FF800000
000000E0E0000000
000010A030000000
0020A0F0F0C03000
20F0FFE0E0FFF030
C0FF60000060FFC0
F0F000000000F0F0
F0F000000000F0F0
A0FF60000060FFA0
20F0FFE0E0FFF030
0020A0F0FFC03000
ENDCHAR
STARTCHAR  00F7
ENCODING  247
SWIDTH  1000 0
DWIDTH  14 0
BBX  10 9 2 0
BITMAP
00000060F0A000000000
000000E0FFF000000000
00000060E06000000000
C0C0C0C0C0C0C0C0C0C0
FFFFFFFFFFFFFFFFFFFF
00000000000000000000
00000060E06000000000
000000E0FFF000000000
00000060F0A000000000
ENDCHAR
STARTCHAR  00F9
ENCODING  249
SWIDTH  1000 0
DWIDTH  9 0
BBX  7 12 1 0
BITMAP
00A0FF80000000
0010E0F0100000
000040FF800000
00000040400000
FFE0000000E0FF
FFE0000000E0FF
FFE0000000E0FF
FFE0000000E0FF
FFE0000000F0FF
E0FF300040FFE0
80FFF0E0FFFF60
0080E0FFE06000
ENDCHAR
STARTCHAR  00FA
ENCODING  250
SWIDTH  1000 0
DWIDTH  9 0
BBX  7 12 1 0
BITMAP
00000080FFA000
000010F0E01000
000080FF400000
00006060000000
FFE0000000E0FF
FFE0000000E0FF
FFE0000000E0FF
FFE0000000E0FF
FFE0000000F0FF
E0FF300040FFE0
80FFF0E0FFFF60
0080E0FFE06000
ENDCHAR
STARTCHAR  00FC
ENCODING  252
SWIDTH  1000 0
DWIDTH  9 0
BBX  7 11 1 0
BITMAP
00C0E000E0C000
0080A000A08000
00000000000000
FFE0000000E0FF
FFE0000000E0FF
FFE0000000E0FF
FFE0000000E0FF
FFE0000000F0FF
E0FF300040FFE0
80FFF0E0FFFF60
0080E0FFE06000
ENDCHAR
STARTCHAR  2014
ENCODING  8212
SWIDTH  1000 0
DWIDTH  16 0
BBX  16 2 0 3
BITMAP
C0C0C0C0C0C0C0C0C0C0C0C0C0C0C0C0
FFFFFFFFFFFFFFFFFFFFFFFFFFFFFFFF
ENDCHAR
STARTCHAR  2018
ENCODING  8216
SWIDTH  1000 0
DWIDTH  4 0
BBX  3 4 0 8
BITMAP
60FF60
30FF80
00F0A0
00E0E0
ENDCHAR
STARTCHAR  2019
ENCODING  8217
SWIDTH  1000 0
DWIDTH  4 0
BBX  4 4 0 8
BITMAP
00C0FF00
00F0E000
10FFA000
40FF6000
ENDCHAR
STARTCHAR  201C
ENCODING  8220
SWIDTH  1000 0
DWIDTH  6 0
BBX  6 4 0 8
BITMAP
80FF4080FF40
40FF6040FF60
10FFA010FF80
00E0C000E0C0
ENDCHAR
STARTCHAR  201D
ENCODING  8221
SWIDTH  1000 0
DWIDTH  6 0
BBX  6 4 0 8
BITMAP
20FFA010FFA0
40FF8030FF80
60FF4060FF40
80FF1080FF10
ENDCHAR
STARTCHAR  2026
ENCODING  8230
SWIDTH  1000 0
DWIDTH  16 0
BBX  13 2 2 0
BITMAP
A08000000060C040000000A080
E0C0000000A0F080000000E0C0
ENDCHAR
STARTCHAR  2030
ENCODING  8240
SWIDTH  1000 0
DWIDTH  17 0
BBX  17 12 0 0
BITMAP
10A0F0F0A0100000E0A000000000000000
A0FFE0E0FFA00080F01000000000000000
F0F01010FFE020F0600000000000000000
F0FF3040FFE0A0E0000000000000000000
80FFFFFFFFA0FF40000000000000000000
0060C0C060E0A000000000000000000000
0000000080F060A0A060000040A0A04000
00000020F0C0FFFFFFFF6060FFFFFFFF60
000000A0E0E0FF4030FFF0E0FF4030FFE0
000040FF40E0FF2010F0F0E0FF2010F0F0
0000E0A00080FFF0E0FFA080FFE0E0FFA0
0080F0100000A0F0F0A01000A0F0F0A000
ENDCHAR
ENDFONT
